<svg version="1.1" xmlns="http://www.w3.org/2000/svg" xmlns:xlink="http://www.w3.org/1999/xlink" width="2834.6457" height="1700.7874" >
<path d=" 
M0.0000,0.0000
L0.0000,1700.7874
L2834.6457,1700.7874
L2834.6457,0.0000
L0.0000,0.0000
Z" 
style="stroke-width: 0.5669; stroke: #009035; stroke-dasharray: none; stroke-linecap: butt; stroke-linejoin: miter; fill-rule: evenodd; fill: #000200; "/>
<g id="Layer1000" >
<g id="Layer1001" >
<path d=" 
M819.7677,664.3203
L931.7570,663.7502
L1381.3428,209.5657
C1532.7404,359.4256 1684.1365,509.2878 1835.5307,659.1510
L1947.5171,658.5810
C1951.6214,658.5602 1954.9962,661.9009 1955.0169,666.0049
L1955.0521,672.9213
C1955.0732,677.0253 1951.7325,680.3996 1947.6285,680.4207
L819.8787,686.1600
C815.7748,686.1808 812.4000,682.8404 812.3789,678.7365
L812.3438,671.8201
C812.3230,667.7161 815.6637,664.3414 819.7677,664.3203
Z
Z
M1796.9243,659.3476
L970.3609,663.5541
L1381.5390,248.1692
L1796.9243,659.3476
Z" 
style="fill-rule: evenodd; fill: #009ee0; "/>
<path d=" 
M277.8402,719.3277
L398.1589,718.7151
C443.9750,718.4819 467.0292,741.3030 467.2624,787.1190
L467.7873,890.2493
C468.0205,936.0654 445.1998,959.1196 399.3834,959.3528
L279.0647,959.9651
L277.8402,719.3277
Z
Z
M333.1116,767.2104
L333.8464,911.5809
L399.1387,911.2485
C408.2902,911.2022 412.8309,904.2565 412.7609,890.5292
L412.2360,787.3989
C412.1661,773.6719 407.5554,766.8313 398.4040,766.8780
L333.1116,767.2104
Z
Z
M534.7527,718.0200
L655.0718,717.4077
C700.8878,717.1745 723.9421,739.9952 724.1753,785.8116
L724.2626,802.9999
C724.4540,840.6033 709.1383,862.8565 678.3744,869.7596
L729.6843,957.6716
L670.1994,957.9744
L620.0744,872.2855
L590.5664,872.4358
L591.0039,958.3775
L535.9776,958.6577
L534.7527,718.0200
Z
Z
M590.0241,765.9026
L590.3217,824.3315
L655.6140,823.9994
C664.7655,823.9528 669.3062,817.0656 669.2363,803.2798
L669.1485,786.0915
C669.0789,772.3645 664.4682,765.5239 655.3168,765.5706
L590.0241,765.9026
Z
Z
M788.9031,888.6151
L788.0284,716.7311
L843.0547,716.4512
L843.9294,888.3349
C843.9994,902.0622 848.6105,908.9612 857.7619,908.9146
L909.3269,908.6522
C918.4783,908.6055 923.0191,901.6602 922.9491,887.9329
L922.0744,716.0489
L977.1008,715.7690
L977.9754,887.6527
C978.2086,933.4691 955.3880,956.5230 909.5719,956.7562
L858.0066,957.0186
C812.1905,957.2518 789.1363,934.4311 788.9031,888.6151
Z
Z
M1179.7217,859.1123
L1138.4815,859.3222
L1134.7755,811.2356
L1234.5033,810.7281
L1234.8883,886.3453
C1235.1215,932.1613 1212.3005,955.2156 1166.4844,955.4488
L1114.9194,955.7112
C1069.1034,955.9444 1046.0491,933.1237 1045.8159,887.3077
L1045.2911,784.1774
C1045.0579,738.3609 1067.8785,715.3071 1113.6946,715.0739
L1165.2599,714.8114
C1211.0760,714.5782 1234.1302,737.3989 1234.3634,783.2149
L1234.3897,788.3776
L1179.3808,792.1187
L1179.3371,783.4952
C1179.2671,769.7678 1174.6564,762.9277 1165.5050,762.9739
L1113.9400,763.2364
C1104.7882,763.2830 1100.2474,770.1702 1100.3174,783.8972
L1100.8423,887.0275
C1100.9119,900.7548 1105.5229,907.6538 1114.6744,907.6072
L1166.2397,907.3448
C1175.3912,907.2981 1179.9316,900.3528 1179.8620,886.6255
L1179.7217,859.1123
Z
Z
M1491.2759,781.9075
L1491.3022,787.0702
L1436.2936,790.8110
L1436.2496,782.1878
C1436.1800,768.4604 1431.5693,761.6199 1422.4178,761.6665
L1370.8525,761.9290
C1361.7010,761.9756 1357.1599,768.8624 1357.2299,782.5897
L1357.2651,789.4532
C1357.3350,803.2394 1361.9457,810.0796 1371.0972,810.0330
L1422.6625,809.7705
C1468.4786,809.5373 1491.5328,832.3583 1491.7660,878.1744
L1491.8008,885.0379
C1492.0340,930.8539 1469.2133,953.9082 1423.3973,954.1414
L1371.8319,954.4038
C1326.0159,954.6370 1302.9616,931.8163 1302.7284,885.9999
L1302.7022,880.8377
L1357.7111,877.1553
L1357.7548,885.7201
C1357.8247,899.4474 1362.4358,906.3461 1371.5872,906.2998
L1423.1522,906.0374
C1432.3040,905.9907 1436.8444,899.0451 1436.7745,885.3177
L1436.7397,878.4542
C1436.6697,864.7269 1432.0586,857.8282 1422.9072,857.8745
L1371.3422,858.1370
C1325.5262,858.3702 1302.4723,835.6083 1302.2387,789.7334
L1302.2036,782.8700
C1301.9707,737.0535 1324.7914,713.9993 1370.6074,713.7665
L1422.1724,713.5040
C1467.9888,713.2708 1491.0427,736.0915 1491.2759,781.9075
Z
Z
M1666.6006,760.4239
L1667.5800,952.8987
L1612.6121,953.1782
L1611.6327,760.7037
L1544.5803,761.0450
L1544.3352,712.8822
L1733.4076,711.9201
L1733.6526,760.0826
L1666.6006,760.4239
Z
Z
M1788.6890,883.5269
L1788.1641,780.3966
C1787.9309,734.5805 1810.7515,711.5263 1856.5676,711.2931
L1908.1330,711.0306
C1953.9490,710.7974 1977.0032,733.6185 1977.2364,779.4345
L1977.7613,882.5648
C1977.9942,928.3809 1955.1735,951.4351 1909.3574,951.6683
L1857.7925,951.9308
C1811.9760,952.1636 1788.9222,929.3429 1788.6890,883.5269
Z
Z
M1843.1901,780.1167
L1843.7149,883.2470
C1843.7849,896.9744 1848.3960,903.8730 1857.5474,903.8264
L1909.1128,903.5640
C1918.2642,903.5177 1922.8046,896.5720 1922.7346,882.8447
L1922.2101,779.7144
C1922.1401,765.9874 1917.5294,759.1468 1908.3780,759.1935
L1856.8126,759.4559
C1847.6612,759.5026 1843.1205,766.3894 1843.1901,780.1167
Z
Z
M2044.7268,710.3355
L2165.0454,709.7232
C2210.8615,709.4900 2233.9157,732.3107 2234.1489,778.1271
L2234.2363,795.3154
C2234.4277,832.9188 2219.1120,855.1720 2188.3481,862.0751
L2239.6580,949.9871
L2180.1735,950.2899
L2130.0480,864.6010
L2100.5404,864.7510
L2100.9776,950.6930
L2045.9513,950.9732
L2044.7268,710.3355
Z
Z
M2099.9982,758.2181
L2100.2954,816.6470
L2165.5881,816.3149
C2174.7395,816.2683 2179.2803,809.3811 2179.2099,795.5953
L2179.1226,778.4070
C2179.0526,764.6796 2174.4419,757.8394 2165.2905,757.8861
L2099.9982,758.2181
Z
Z
M2357.6454,901.2816
L2474.5031,900.6867
L2474.7481,948.7907
L2302.8641,949.6654
L2301.6396,709.0281
L2473.5233,708.1534
L2473.7683,756.3162
L2356.9106,756.9107
L2357.1557,805.0147
L2456.8247,804.5076
L2457.0697,852.6116
L2357.4004,853.1187
L2357.6454,901.2816
Z" 
style="fill-rule: evenodd; fill: #008bd0; fill-opacity: 0.0000; "/>
<path d=" 
M297.2417,735.1069
L417.5604,734.4943
C463.3765,734.2614 486.4307,757.0821 486.6639,802.8981
L487.1888,906.0285
C487.4220,951.8445 464.6013,974.8988 418.7853,975.1320
L298.4662,975.7442
L297.2417,735.1069
Z
Z
M352.5131,782.9895
L353.2479,927.3600
L418.5402,927.0280
C427.6917,926.9813 432.2324,920.0357 432.1624,906.3083
L431.6376,803.1780
C431.5676,789.4510 426.9569,782.6105 417.8055,782.6571
L352.5131,782.9895
Z
Z
M554.1546,733.7991
L674.4733,733.1869
C720.2893,732.9537 743.3436,755.7743 743.5768,801.5907
L743.6641,818.7791
C743.8555,856.3824 728.5398,878.6356 697.7759,885.5387
L749.0858,973.4511
L689.6009,973.7535
L639.4759,888.0647
L609.9679,888.2150
L610.4054,974.1566
L555.3791,974.4368
L554.1546,733.7991
Z
Z
M609.4256,781.6818
L609.7232,840.1106
L675.0156,839.7786
C684.1670,839.7319 688.7077,832.8447 688.6378,819.0589
L688.5504,801.8706
C688.4805,788.1436 683.8698,781.3031 674.7183,781.3497
L609.4256,781.6818
Z
Z
M808.3046,904.3942
L807.4299,732.5102
L862.4563,732.2304
L863.3309,904.1140
C863.4009,917.8414 868.0120,924.7404 877.1634,924.6937
L928.7284,924.4313
C937.8802,924.3847 942.4206,917.4394 942.3506,903.7120
L941.4759,731.8280
L996.5023,731.5482
L997.3770,903.4318
C997.6102,949.2482 974.7895,972.3021 928.9734,972.5353
L877.4081,972.7977
C831.5920,973.0309 808.5378,950.2103 808.3046,904.3942
Z
Z
M1199.1232,874.8915
L1157.8830,875.1013
L1154.1770,827.0147
L1253.9048,826.5072
L1254.2898,902.1244
C1254.5230,947.9405 1231.7023,970.9947 1185.8859,971.2279
L1134.3209,971.4903
C1088.5049,971.7235 1065.4507,948.9029 1065.2175,903.0868
L1064.6926,799.9565
C1064.4594,754.1405 1087.2800,731.0862 1133.0961,730.8530
L1184.6614,730.5906
C1230.4775,730.3574 1253.5317,753.1780 1253.7649,798.9941
L1253.7912,804.1567
L1198.7823,807.8979
L1198.7386,799.2743
C1198.6686,785.5469 1194.0579,778.7068 1184.9065,778.7531
L1133.3415,779.0155
C1124.1901,779.0621 1119.6490,785.9493 1119.7189,799.6763
L1120.2438,902.8066
C1120.3134,916.5340 1124.9245,923.4330 1134.0763,923.3863
L1185.6413,923.1239
C1194.7927,923.0773 1199.3331,916.1320 1199.2635,902.4046
L1199.1232,874.8915
Z
Z
M1510.6774,797.6867
L1510.7037,802.8493
L1455.6951,806.5901
L1455.6511,797.9669
C1455.5815,784.2395 1450.9708,777.3990 1441.8193,777.4457
L1390.2540,777.7081
C1381.1026,777.7547 1376.5618,784.6415 1376.6314,798.3689
L1376.6666,805.2327
C1376.7365,819.0186 1381.3472,825.8587 1390.4990,825.8121
L1442.0640,825.5496
C1487.8801,825.3164 1510.9343,848.1375 1511.1675,893.9535
L1511.2023,900.8170
C1511.4355,946.6331 1488.6148,969.6873 1442.7988,969.9205
L1391.2334,970.1829
C1345.4174,970.4161 1322.3631,947.5955 1322.1299,901.7791
L1322.1040,896.6168
L1377.1126,892.9345
L1377.1563,901.4992
C1377.2262,915.2266 1381.8373,922.1256 1390.9888,922.0789
L1442.5541,921.8165
C1451.7056,921.7699 1456.2459,914.8242 1456.1760,901.0969
L1456.1412,894.2334
C1456.0712,880.5060 1451.4601,873.6074 1442.3087,873.6540
L1390.7437,873.9161
C1344.9277,874.1493 1321.8738,851.3875 1321.6402,805.5126
L1321.6054,798.6491
C1321.3722,752.8327 1344.1929,729.7784 1390.0089,729.5456
L1441.5739,729.2832
C1487.3904,729.0500 1510.4442,751.8706 1510.6774,797.6867
Z
Z
M1686.0021,776.2030
L1686.9815,968.6779
L1632.0140,968.9573
L1631.0342,776.4829
L1563.9822,776.8242
L1563.7367,728.6613
L1752.8091,727.6993
L1753.0541,775.8617
L1686.0021,776.2030
Z
Z
M1808.0905,899.3060
L1807.5656,796.1757
C1807.3324,750.3596 1830.1531,727.3054 1875.9691,727.0722
L1927.5345,726.8098
C1973.3505,726.5766 1996.4047,749.3976 1996.6379,795.2136
L1997.1628,898.3440
C1997.3960,944.1600 1974.5750,967.2143 1928.7589,967.4475
L1877.1940,967.7099
C1831.3779,967.9427 1808.3237,945.1221 1808.0905,899.3060
Z
Z
M1862.5919,795.8959
L1863.1164,899.0262
C1863.1864,912.7535 1867.7975,919.6522 1876.9489,919.6055
L1928.5143,919.3431
C1937.6657,919.2968 1942.2061,912.3512 1942.1365,898.6238
L1941.6116,795.4935
C1941.5416,781.7665 1936.9309,774.9260 1927.7795,774.9726
L1876.2142,775.2351
C1867.0627,775.2817 1862.5220,782.1685 1862.5919,795.8959
Z
Z
M2064.1283,726.1146
L2184.4470,725.5024
C2230.2630,725.2692 2253.3172,748.0898 2253.5504,793.9062
L2253.6382,811.0946
C2253.8295,848.6979 2238.5135,870.9511 2207.7496,877.8542
L2259.0595,965.7662
L2199.5750,966.0690
L2149.4495,880.3802
L2119.9420,880.5301
L2120.3791,966.4721
L2065.3531,966.7523
L2064.1283,726.1146
Z
Z
M2119.3997,773.9973
L2119.6969,832.4261
L2184.9896,832.0941
C2194.1410,832.0474 2198.6818,825.1602 2198.6115,811.3744
L2198.5241,794.1861
C2198.4541,780.4587 2193.8438,773.6186 2184.6920,773.6652
L2119.3997,773.9973
Z
Z
M2377.0469,917.0607
L2493.9046,916.4658
L2494.1497,964.5698
L2322.2656,965.4445
L2321.0411,724.8072
L2492.9248,723.9325
L2493.1698,772.0954
L2376.3125,772.6899
L2376.5572,820.7938
L2476.2266,820.2867
L2476.4712,868.3907
L2376.8019,868.8982
L2377.0469,917.0607
Z" 
style="fill-rule: evenodd; fill: #e40044; fill-opacity: 0.0000; "/>
<path d=" 
M1098.2660,1144.4941
L1097.7333,1039.8357
L1139.7741,1039.6218
L1139.8389,1052.3030
L1114.7558,1052.4307
L1114.9172,1084.2074
L1137.1745,1084.0941
L1137.2389,1096.7754
L1114.9820,1096.8887
L1115.1593,1131.7262
L1140.2424,1131.5985
L1140.3068,1144.2801
L1098.2660,1144.4941
Z
Z
M1192.7698,1144.0129
L1152.4954,1144.2179
L1151.9627,1039.5596
L1168.9204,1039.4733
L1169.3887,1131.4504
L1192.7054,1131.3316
L1192.7698,1144.0129
Z
Z
M1230.2154,1039.1613
L1261.1281,1039.0040
C1274.7885,1038.9344 1281.6490,1044.8762 1281.7097,1056.8286
L1281.8678,1087.8764
C1281.9281,1099.7319 1275.1868,1105.6940 1261.6445,1105.7629
L1247.5129,1105.8347
L1247.7058,1143.7334
L1230.7481,1143.8196
L1230.2154,1039.1613
Z
Z
M1247.4482,1093.1534
L1258.2235,1093.0986
C1262.6983,1093.0757 1264.9256,1091.0235 1264.9049,1086.9421
L1264.7564,1057.7895
C1264.7357,1053.7082 1262.1934,1051.6804 1257.1297,1051.7060
L1247.2375,1051.7563
L1247.4482,1093.1534
Z
Z
M1311.6507,1143.4080
L1294.6927,1143.4943
L1294.2514,1056.7649
C1294.1907,1044.8121 1300.9317,1038.8015 1314.4743,1038.7327
L1327.1926,1038.6679
C1340.7349,1038.5990 1347.5369,1044.5408 1347.5976,1056.4932
L1348.0392,1143.2229
L1331.0815,1143.3092
L1330.8864,1104.9733
L1311.4553,1105.0722
L1311.6507,1143.4080
Z
Z
M1330.8216,1092.2917
L1330.6443,1057.4542
C1330.6236,1053.3728 1328.1402,1051.3447 1323.1942,1051.3699
L1318.6016,1051.3932
C1313.6555,1051.4184 1311.1929,1053.4716 1311.2136,1057.5530
L1311.3909,1092.3905
L1330.8216,1092.2917
Z
Z
M1362.5209,1038.4880
L1395.7298,1038.3192
C1408.6838,1038.2533 1415.1909,1044.1966 1415.2519,1056.1490
L1415.3830,1081.9494
C1415.4296,1091.0838 1412.1026,1096.8828 1405.4027,1099.3465
L1417.4596,1142.8694
L1401.3850,1142.9512
L1390.0415,1100.7365
L1379.7963,1100.7887
L1380.0113,1143.0601
L1363.0536,1143.1463
L1362.5209,1038.4880
Z
Z
M1379.7352,1088.8359
L1390.8640,1088.7792
C1395.9278,1088.7537 1398.4467,1086.2140 1398.4208,1081.1610
L1398.3061,1058.5676
C1398.2801,1053.5146 1395.7357,1051.0008 1390.6719,1051.0264
L1379.5431,1051.0830
L1379.7352,1088.8359
Z
Z
M1445.8992,1142.7247
L1428.9415,1142.8110
L1428.4999,1056.0816
C1428.4392,1044.1292 1435.1802,1038.1182 1448.7228,1038.0493
L1461.4411,1037.9846
C1474.9837,1037.9157 1481.7854,1043.8575 1481.8461,1055.8103
L1482.2877,1142.5396
L1465.3296,1142.6259
L1465.1345,1104.2900
L1445.7042,1104.3888
L1445.8992,1142.7247
Z
Z
M1465.0701,1091.6087
L1464.8928,1056.7712
C1464.8721,1052.6899 1462.3887,1050.6614 1457.4426,1050.6866
L1452.8501,1050.7103
C1447.9040,1050.7354 1445.4414,1052.7887 1445.4621,1056.8701
L1445.6394,1091.7076
L1465.0701,1091.6087
Z
Z
M1547.8739,1117.7168
L1547.9084,1124.4222
C1547.9687,1136.2773 1541.2274,1142.2398 1527.6847,1142.3087
L1516.7328,1142.3642
C1503.1902,1142.4334 1496.3889,1136.5401 1496.3286,1124.6846
L1495.9769,1055.5926
C1495.9166,1043.7368 1502.6576,1037.7751 1516.2002,1037.7058
L1527.1521,1037.6503
C1540.6947,1037.5815 1547.4964,1043.4744 1547.5567,1055.3298
L1547.6167,1067.1368
L1530.6590,1067.2230
L1530.6042,1056.4366
C1530.5831,1052.3552 1528.0408,1050.3275 1522.9774,1050.3530
L1519.6212,1050.3704
C1515.1460,1050.3930 1512.9191,1052.4452 1512.9398,1056.5266
L1513.2811,1123.5779
C1513.3018,1127.6592 1515.5498,1129.6885 1520.0247,1129.6659
L1524.2641,1129.6444
C1528.7390,1129.6215 1530.9662,1127.5693 1530.9451,1123.4879
L1530.9162,1117.8030
L1547.8739,1117.7168
Z
Z
M1577.3212,1142.0558
L1560.3635,1142.1421
L1559.9222,1055.4127
C1559.8615,1043.4603 1566.6025,1037.4493 1580.1451,1037.3805
L1592.8634,1037.3157
C1606.4057,1037.2468 1613.2077,1043.1886 1613.2684,1055.1414
L1613.7100,1141.8708
L1596.7519,1141.9570
L1596.5569,1103.6211
L1577.1261,1103.7200
L1577.3212,1142.0558
Z
Z
M1596.4925,1090.9399
L1596.3152,1056.1024
C1596.2944,1052.0210 1593.8110,1049.9929 1588.8650,1050.0181
L1584.2724,1050.0414
C1579.3260,1050.0665 1576.8637,1052.1198 1576.8844,1056.2012
L1577.0617,1091.0387
L1596.4925,1090.9399
Z
Z
M1648.3317,1141.6946
C1634.6714,1141.7641 1627.8109,1135.8712 1627.7505,1124.0158
L1627.4000,1055.0696
C1627.3389,1043.1168 1634.0799,1037.1062 1647.6225,1037.0370
L1663.8736,1036.9544
C1677.4162,1036.8856 1684.2179,1042.8273 1684.2786,1054.7801
L1684.6295,1123.7263
C1684.6899,1135.5818 1677.8900,1141.5443 1664.2297,1141.6135
L1648.3317,1141.6946
Z
Z
M1652.3298,1128.9926
L1660.9856,1128.9485
C1665.4605,1128.9256 1667.6877,1126.8734 1667.6670,1122.7920
L1667.3257,1055.7407
C1667.3050,1051.6593 1664.7627,1049.6316 1659.6986,1049.6575
L1651.7498,1049.6979
C1646.8037,1049.7230 1644.3414,1051.7763 1644.3622,1055.8577
L1644.7034,1122.9090
C1644.7242,1126.9904 1647.2664,1129.0181 1652.3298,1128.9926
Z" 
style="fill-rule: evenodd; fill: #e40044; "/>
<path d=" 
M1092.1406,1138.4261
L1091.6079,1033.7688
L1133.6487,1033.5549
L1133.7131,1046.2361
L1108.6301,1046.3638
L1108.7918,1078.1401
L1131.0487,1078.0269
L1131.1131,1090.7081
L1108.8562,1090.8214
L1109.0335,1125.6585
L1134.1166,1125.5308
L1134.1814,1138.2121
L1092.1406,1138.4261
Z
Z
M1186.6436,1137.9452
L1146.3696,1138.1503
L1145.8370,1033.4931
L1162.7943,1033.4068
L1163.2626,1125.3824
L1186.5792,1125.2639
L1186.6436,1137.9452
Z
Z
M1224.0889,1033.0948
L1255.0009,1032.9374
C1268.6612,1032.8679 1275.5218,1038.8093 1275.5825,1050.7617
L1275.7405,1081.8091
C1275.8009,1093.6646 1269.0599,1099.6267 1255.5173,1099.6956
L1241.3861,1099.7674
L1241.5789,1137.6658
L1224.6216,1137.7520
L1224.0889,1033.0948
Z
Z
M1241.3217,1087.0861
L1252.0966,1087.0313
C1256.5715,1087.0088 1258.7987,1084.9566 1258.7780,1080.8752
L1258.6296,1051.7226
C1258.6088,1047.6413 1256.0662,1045.6135 1251.0028,1045.6394
L1241.1107,1045.6898
L1241.3217,1087.0861
Z
Z
M1305.5228,1137.3400
L1288.5654,1137.4266
L1288.1242,1050.6980
C1288.0631,1038.7456 1294.8041,1032.7350 1308.3463,1032.6657
L1321.0646,1032.6013
C1334.6069,1032.5321 1341.4086,1038.4739 1341.4696,1050.4263
L1341.9109,1137.1549
L1324.9535,1137.2412
L1324.7584,1098.9060
L1305.3277,1099.0049
L1305.5228,1137.3400
Z
Z
M1324.6937,1086.2248
L1324.5164,1051.3873
C1324.4956,1047.3063 1322.0122,1045.2778 1317.0665,1045.3030
L1312.4736,1045.3267
C1307.5275,1045.3518 1305.0653,1047.4051 1305.0860,1051.4861
L1305.2633,1086.3236
L1324.6937,1086.2248
Z
Z
M1356.3930,1032.4214
L1389.6014,1032.2523
C1402.5547,1032.1864 1409.0621,1038.1297 1409.1232,1050.0821
L1409.2542,1075.8822
C1409.3009,1085.0166 1405.9739,1090.8155 1399.2740,1093.2793
L1411.3308,1136.8018
L1395.2567,1136.8836
L1383.9128,1094.6692
L1373.6675,1094.7214
L1373.8830,1136.9924
L1356.9253,1137.0787
L1356.3930,1032.4214
Z
Z
M1373.6068,1082.7690
L1384.7353,1082.7123
C1389.7991,1082.6864 1392.3180,1080.1468 1392.2921,1075.0937
L1392.1773,1052.5007
C1392.1514,1047.4477 1389.6070,1044.9339 1384.5432,1044.9598
L1373.4147,1045.0165
L1373.6068,1082.7690
Z
Z
M1439.7698,1136.6571
L1422.8124,1136.7433
L1422.3708,1050.0147
C1422.3101,1038.0623 1429.0511,1032.0517 1442.5934,1031.9828
L1455.3116,1031.9180
C1468.8539,1031.8492 1475.6556,1037.7906 1475.7167,1049.7434
L1476.1579,1136.4716
L1459.2005,1136.5582
L1459.0055,1098.2227
L1439.5747,1098.3216
L1439.7698,1136.6571
Z
Z
M1458.9407,1085.5415
L1458.7634,1050.7043
C1458.7426,1046.6230 1456.2592,1044.5949 1451.3136,1044.6200
L1446.7206,1044.6433
C1441.7746,1044.6685 1439.3123,1046.7218 1439.3330,1050.8032
L1439.5103,1085.6403
L1458.9407,1085.5415
Z
Z
M1541.7434,1111.6491
L1541.7778,1118.3542
C1541.8381,1130.2096 1535.0972,1136.1718 1521.5545,1136.2406
L1510.6026,1136.2965
C1497.0604,1136.3654 1490.2591,1130.4721 1490.1987,1118.6170
L1489.8471,1049.5257
C1489.7868,1037.6703 1496.5277,1031.7081 1510.0704,1031.6393
L1521.0219,1031.5834
C1534.5645,1031.5146 1541.3658,1037.4079 1541.4261,1049.2633
L1541.4861,1061.0699
L1524.5288,1061.1561
L1524.4740,1050.3697
C1524.4533,1046.2883 1521.9110,1044.2606 1516.8472,1044.2865
L1513.4910,1044.3035
C1509.0161,1044.3261 1506.7889,1046.3783 1506.8096,1050.4597
L1507.1509,1117.5102
C1507.1716,1121.5916 1509.4196,1123.6208 1513.8945,1123.5982
L1518.1339,1123.5764
C1522.6088,1123.5538 1524.8360,1121.5017 1524.8153,1117.4203
L1524.7860,1111.7354
L1541.7434,1111.6491
Z
Z
M1571.1906,1135.9882
L1554.2333,1136.0744
L1553.7917,1049.3458
C1553.7310,1037.3934 1560.4716,1031.3828 1574.0142,1031.3139
L1586.7325,1031.2491
C1600.2748,1031.1803 1607.0764,1037.1221 1607.1375,1049.0745
L1607.5787,1135.8031
L1590.6210,1135.8894
L1590.4259,1097.5539
L1570.9956,1097.6527
L1571.1906,1135.9882
Z
Z
M1590.3615,1084.8726
L1590.1842,1050.0355
C1590.1635,1045.9541 1587.6801,1043.9260 1582.7344,1043.9512
L1578.1415,1043.9745
C1573.1954,1043.9996 1570.7331,1046.0529 1570.7538,1050.1343
L1570.9311,1084.9714
L1590.3615,1084.8726
Z
Z
M1642.2004,1135.6269
C1628.5401,1135.6961 1621.6799,1129.8036 1621.6196,1117.9481
L1621.2687,1049.0027
C1621.2080,1037.0499 1627.9486,1031.0393 1641.4912,1030.9704
L1657.7419,1030.8879
C1671.2846,1030.8190 1678.0862,1036.7604 1678.1469,1048.7132
L1678.4978,1117.6587
C1678.5582,1129.5141 1671.7584,1135.4763 1658.0980,1135.5459
L1642.2004,1135.6269
Z
Z
M1646.1985,1122.9249
L1654.8539,1122.8809
C1659.3288,1122.8579 1661.5560,1120.8058 1661.5349,1116.7248
L1661.1940,1049.6738
C1661.1729,1045.5928 1658.6310,1043.5647 1653.5669,1043.5906
L1645.6185,1043.6310
C1640.6724,1043.6561 1638.2097,1045.7094 1638.2305,1049.7908
L1638.5718,1116.8414
C1638.5925,1120.9227 1641.1347,1122.9505 1646.1985,1122.9249
Z" 
style="fill-rule: evenodd; fill: #ffffff; "/>
<path d=" 
M286.1092,728.0468
L406.4279,727.4342
C452.2439,727.2010 475.2982,750.0221 475.5314,795.8381
L476.0563,898.9684
C476.2895,944.7845 453.4688,967.8387 407.6524,968.0719
L287.3337,968.6842
L286.1092,728.0468
Z
Z
M341.3806,775.9295
L342.1154,920.3000
L407.4077,919.9675
C416.5591,919.9213 421.0995,912.9756 421.0299,899.2483
L420.5050,796.1179
C420.4351,782.3910 415.8244,775.5504 406.6729,775.5971
L341.3806,775.9295
Z
Z
M543.0217,726.7391
L663.3404,726.1268
C709.1568,725.8936 732.2107,748.7143 732.4439,794.5307
L732.5316,811.7190
C732.7230,849.3224 717.4073,871.5756 686.6434,878.4787
L737.9533,966.3907
L678.4684,966.6934
L628.3433,881.0046
L598.8354,881.1549
L599.2725,967.0965
L544.2466,967.3768
L543.0217,726.7391
Z
Z
M598.2931,774.6217
L598.5903,833.0505
L663.8830,832.7185
C673.0345,832.6719 677.5752,825.7847 677.5052,811.9989
L677.4175,794.8105
C677.3479,781.0832 672.7372,774.2430 663.5858,774.2897
L598.2931,774.6217
Z
Z
M797.1721,897.3342
L796.2974,725.4502
L851.3237,725.1703
L852.1984,897.0540
C852.2684,910.7813 856.8794,917.6803 866.0309,917.6337
L917.5959,917.3713
C926.7473,917.3246 931.2880,910.3793 931.2181,896.6520
L930.3434,724.7680
L985.3697,724.4881
L986.2444,896.3718
C986.4776,942.1878 963.6570,965.2421 917.8409,965.4753
L866.2756,965.7377
C820.4595,965.9709 797.4053,943.1502 797.1721,897.3342
Z
Z
M1187.9907,867.8314
L1146.7505,868.0413
L1143.0445,819.9547
L1242.7723,819.4472
L1243.1573,895.0644
C1243.3901,940.8804 1220.5694,963.9346 1174.7534,964.1678
L1123.1884,964.4303
C1077.3720,964.6635 1054.3181,941.8428 1054.0849,896.0268
L1053.5600,792.8965
C1053.3268,747.0800 1076.1475,724.0262 1121.9636,723.7930
L1173.5289,723.5305
C1219.3450,723.2973 1242.3992,746.1180 1242.6324,791.9340
L1242.6587,797.0966
L1187.6497,800.8378
L1187.6061,792.2143
C1187.5361,778.4869 1182.9254,771.6467 1173.7740,771.6930
L1122.2086,771.9555
C1113.0572,772.0021 1108.5164,778.8893 1108.5864,792.6162
L1109.1109,895.7466
C1109.1809,909.4739 1113.7919,916.3729 1122.9434,916.3263
L1174.5087,916.0639
C1183.6602,916.0172 1188.2005,909.0719 1188.1306,895.3446
L1187.9907,867.8314
Z
Z
M1499.5449,790.6266
L1499.5712,795.7892
L1444.5626,799.5301
L1444.5185,790.9068
C1444.4486,777.1795 1439.8379,770.3390 1430.6864,770.3856
L1379.1215,770.6481
C1369.9700,770.6947 1365.4289,777.5815 1365.4989,791.3088
L1365.5337,798.1723
C1365.6040,811.9582 1370.2147,818.7987 1379.3661,818.7521
L1430.9315,818.4896
C1476.7475,818.2564 1499.8018,841.0774 1500.0350,886.8935
L1500.0698,893.7570
C1500.3030,939.5730 1477.4823,962.6272 1431.6663,962.8604
L1380.1009,963.1229
C1334.2849,963.3561 1311.2306,940.5354 1310.9974,894.7190
L1310.9711,889.5568
L1365.9801,885.8744
L1366.0238,894.4392
C1366.0937,908.1665 1370.7048,915.0652 1379.8562,915.0189
L1431.4212,914.7565
C1440.5727,914.7098 1445.1134,907.7642 1445.0434,894.0368
L1445.0086,887.1733
C1444.9387,873.4460 1440.3276,866.5473 1431.1762,866.5936
L1379.6112,866.8560
C1333.7948,867.0892 1310.7409,844.3274 1310.5077,798.4525
L1310.4725,791.5887
C1310.2393,745.7726 1333.0604,722.7184 1378.8764,722.4856
L1430.4414,722.2231
C1476.2575,721.9899 1499.3117,744.8106 1499.5449,790.6266
Z
Z
M1674.8692,769.1430
L1675.8490,961.6178
L1620.8811,961.8973
L1619.9017,769.4228
L1552.8493,769.7641
L1552.6042,721.6013
L1741.6766,720.6392
L1741.9216,768.8017
L1674.8692,769.1430
Z
Z
M1796.9579,892.2460
L1796.4331,789.1157
C1796.1999,743.2996 1819.0205,720.2454 1864.8366,720.0122
L1916.4019,719.7497
C1962.2180,719.5165 1985.2722,742.3372 1985.5050,788.1536
L1986.0299,891.2839
C1986.2631,937.1000 1963.4425,960.1542 1917.6264,960.3874
L1866.0614,960.6499
C1820.2450,960.8827 1797.1908,938.0620 1796.9579,892.2460
Z
Z
M1851.4590,788.8358
L1851.9839,891.9661
C1852.0539,905.6935 1856.6649,912.5921 1865.8164,912.5455
L1917.3817,912.2831
C1926.5332,912.2368 1931.0736,905.2911 1931.0036,891.5638
L1930.4787,788.4334
C1930.4091,774.7065 1925.7984,767.8659 1916.6470,767.9126
L1865.0816,768.1750
C1855.9302,768.2217 1851.3894,775.1085 1851.4590,788.8358
Z
Z
M2052.9958,719.0546
L2173.3144,718.4423
C2219.1305,718.2091 2242.1847,741.0298 2242.4179,786.8462
L2242.5053,804.0345
C2242.6966,841.6379 2227.3809,863.8911 2196.6170,870.7938
L2247.9270,958.7062
L2188.4424,959.0089
L2138.3170,873.3201
L2108.8091,873.4700
L2109.2466,959.4120
L2054.2202,959.6923
L2052.9958,719.0546
Z
Z
M2108.2671,766.9372
L2108.5644,825.3660
L2173.8571,825.0340
C2183.0085,824.9874 2187.5493,818.1002 2187.4789,804.3144
L2187.3916,787.1260
C2187.3216,773.3987 2182.7109,766.5585 2173.5595,766.6052
L2108.2671,766.9372
Z
Z
M2365.9144,910.0007
L2482.7721,909.4058
L2483.0168,957.5098
L2311.1331,958.3845
L2309.9082,717.7472
L2481.7923,716.8725
L2482.0373,765.0350
L2365.1796,765.6298
L2365.4247,813.7338
L2465.0937,813.2267
L2465.3387,861.3307
L2365.6693,861.8378
L2365.9144,910.0007
Z" 
style="fill-rule: evenodd; fill: #ffffff; "/>
<path d=" 
M1796.9243,659.3476
L970.3609,663.5541
L1381.5390,248.1692
L1796.9243,659.3476
Z" 
style="stroke-width: 1.1094; stroke: #1b1918; stroke-dasharray: none; stroke-linecap: butt; stroke-linejoin: miter; fill: none; "/>
<path d=" 
M1608.0255,582.2268
L1382.1012,358.5902
L1158.4646,584.5148
L1608.0255,582.2268
Z
Z
M1386.5968,344.8702
L1639.2680,594.9825
L1127.3534,597.5877
C1212.2383,511.8345 1297.1220,426.0801 1382.0083,340.3280
L1386.5968,344.8702
Z" 
style="fill-rule: evenodd; fill: #ffffff; "/>
<path d=" 
M1547.7603,1192.3093
L1387.1698,1354.5429
L1224.9362,1193.9525
L1232.1702,1193.9155
L1387.1328,1347.3089
L1540.5259,1192.3464
L1547.7603,1192.3093
Z" 
style="fill-rule: evenodd; fill: #fffef3; "/>
<path d=" 
M939.5670,627.4336
L1328.8206,234.1983" 
style="stroke-width: 27.7031; stroke: #9edbf4; stroke-dasharray: none; stroke-linecap: round; stroke-linejoin: miter; fill: none; "/>
<path d=" 
M1824.1169,622.9321
L1430.8815,233.6789" 
style="stroke-width: 27.7031; stroke: #9edbf4; stroke-dasharray: none; stroke-linecap: round; stroke-linejoin: miter; fill: none; "/>
<path d=" 
M1067.6479,637.2732
L1699.3744,634.0583" 
style="stroke-width: 27.7031; stroke: #e40044; stroke-dasharray: none; stroke-linecap: round; stroke-linejoin: miter; fill: none; "/>
<path d=" 
M941.8028,1066.7285
L1335.0385,1455.9816" 
style="stroke-width: 27.7031; stroke: #9edbf4; stroke-dasharray: none; stroke-linecap: round; stroke-linejoin: miter; fill: none; "/>
<path d=" 
M1826.3526,1062.2270
L1437.0991,1455.4623" 
style="stroke-width: 27.7031; stroke: #9edbf4; stroke-dasharray: none; stroke-linecap: round; stroke-linejoin: miter; fill: none; "/>
<path d=" 
M558.8493,1006.4533
L2211.9042,998.0407
C2215.6517,998.0215 2218.7363,1001.0731 2218.7551,1004.8220
L2218.7970,1013.0296
C2218.8158,1016.7785 2215.7628,1019.8612 2212.0156,1019.8801
L558.9604,1028.2931
C555.2133,1028.3119 552.1287,1025.2603 552.1095,1021.5118
L552.0676,1013.3042
C552.0488,1009.5552 555.1018,1006.4726 558.8493,1006.4533
Z" 
style="fill-rule: evenodd; fill: #009ee0; "/>
<path d=" 
M557.1148,665.6399
L2210.1700,657.2269
C2213.9172,657.2081 2217.0017,660.2596 2217.0206,664.0082
L2217.0624,672.2158
C2217.0816,675.9647 2214.0282,679.0474 2210.2811,679.0667
L557.2258,687.4793
C553.4787,687.4985 550.3942,684.4469 550.3753,680.6980
L550.3335,672.4904
C550.3142,668.7415 553.3676,665.6588 557.1148,665.6399
Z" 
style="fill-rule: evenodd; fill: #009ee0; "/>
</g>
</g>
</svg>
